# xmcd
#
# Track frame offsets:
#	150
#	874
#	15910
#	32553
#	47474
#	60534
#	61574
#	77585
#	93908
#	109151
#	127064
#	142799
#	158920
#	171240
#	172814
#	185701
#	198394
#	213292
#	227701
#	240941
#	254212
#	274424
#	290784
#	309650
#	326237
#	353754
#	354451
#	355169
#
# Disc length: 4743 seconds
#
# Revision: 1
# Processed by: cddbd v1.5.2PL0 Copyright (c) Steve Scherf et al.
# Submitted via: audiograbber 1.83.01
#
DISCID=8912851c
DTITLE=Country Hotdisc - Country Hotdisc 056
DYEAR=1900
DGENRE=
TTITLE0=Intro - Intro
TTITLE1=Nothhing Could´ve Preared Me For You - Western Union
TTITLE2=Talk To Me  - Lynne Taylor
TTITLE3=Let´s Be Lonely Together  - Cerrito
TTITLE4=Is Anyboby Going To San Antone  - B. Jeff Stone
TTITLE5=Talking About The Song  - Scott Gibson
TTITLE6=Sunday Social  - Scott Gibson
TTITLE7=Joe´s Truck Stop  - Big Al Downing
TTITLE8=Everyone Wants To Dance With My Girl  - The Bluehearts
TTITLE9=Xs And Ys  - Tim Raybon
TTITLE10=California Dream  - Bryan Salter
TTITLE11=A Picture Of Me - Liana Wallinder
TTITLE12=My Sweetsenorita  - Frank Jennings
TTITLE13=Talking About The Song  - Paula Macaskill
TTITLE14=Part Of The Journey  - Paula Macaskill
TTITLE15=One More For The Road - Dean Dobbins Band 
TTITLE16=Hillbilly Rockin´ Man - Billy Lee Riley
TTITLE17=Red Is The Rose  - Roisin
TTITLE18=One More Day  - Donald Wayne Johnson
TTITLE19=As Much As I Can  - Clint Miller
TTITLE20=Learned To Love Again  - Shane Warner
TTITLE21=United We Fall  - Jjjjohns With Heather Myles 
TTITLE22=Witheres Leaves and Falling Petals  - Country Road
TTITLE23=Brand New Head - Leonard Wayne Lowthian 
TTITLE24=Radio Interview  - Paula Macaskill
TTITLE25=Soundbit  - Paula Macaskill
TTITLE26=Soundbit  - Scott Gibson
TTITLE27=Soundbit  - Shane Warner
EXTD=
EXTT0=
EXTT1=
EXTT2=
EXTT3=
EXTT4=
EXTT5=
EXTT6=
EXTT7=
EXTT8=
EXTT9=
EXTT10=
EXTT11=
EXTT12=
EXTT13=
EXTT14=
EXTT15=
EXTT16=
EXTT17=
EXTT18=
EXTT19=
EXTT20=
EXTT21=
EXTT22=
EXTT23=
EXTT24=
EXTT25=
EXTT26=
EXTT27=
PLAYORDER=
